<svg
    viewBox="0 0 24 24"
    fill="none"
    xmlns="http://www.w3.org/2000/svg"
>
    <defs>
        <linearGradient id="loki-main" x1="0%" y1="0%" x2="100%" y2="100%">
            <stop offset="0%" stop-color="#c084fc" />
            <stop offset="100%" stop-color="#6366f1" />
        </linearGradient>
        <linearGradient id="loki-accent" x1="100%" y1="0%" x2="0%" y2="100%">
            <stop offset="0%" stop-color="#4ade80" />
            <stop offset="100%" stop-color="#a78bfa" />
        </linearGradient>
        <filter id="glow">
            <feGaussianBlur stdDeviation="0.5" result="coloredBlur"/>
            <feMerge>
                <feMergeNode in="coloredBlur"/>
                <feMergeNode in="SourceGraphic"/>
            </feMerge>
        </filter>
    </defs>
    {/* Interweaving timeline paths */}
    <path d="M4 12C4 7.58172 7.58172 4 12 4C16.4183 4 20 7.58172 20 12" stroke="url(#loki-main)" stroke-width="1.5" stroke-linecap="round" filter="url(#glow)"/>
    <path d="M20 12C20 16.4183 16.4183 20 12 20C7.58172 20 4 16.4183 4 12" stroke="url(#loki-accent)" stroke-width="1.5" stroke-linecap="round" />
    <path d="M12 2V6" stroke="url(#loki-main)" stroke-width="1" stroke-linecap="round" />
    <path d="M12 18V22" stroke="url(#loki-accent)" stroke-width="1" stroke-linecap="round" />
    {/* Central chaotic element */}
    <path d="M10 11C11.5 9.5 12.5 9.5 14 11L13 13C11.5 14.5 12.5 14.5 11 13L10 11Z" fill="url(#loki-main)" opacity="0.8" filter="url(#glow)"/>
    {/* Stray timelines / Loki's mischief */}
    <path d="M3 7C5 5 8 5 10 7" stroke="url(#loki-accent)" stroke-width="0.75" stroke-linecap="round" />
    <path d="M21 17C19 19 16 19 14 17" stroke="url(#loki-main)" stroke-width="0.75" stroke-linecap="round" />
</svg>
